<svg width="50" height="50" viewBox="0 0 50 50" fill="none" xmlns="http://www.w3.org/2000/svg">
<path fill-rule="evenodd" clip-rule="evenodd" d="M10.7326 10.7327C11.2014 10.264 11.8372 10.0007 12.5001 10.0007C13.163 10.0007 13.7988 10.264 14.2676 10.7327L25.0001 21.4652L35.7326 10.7327C35.9632 10.4939 36.2391 10.3035 36.5441 10.1724C36.8491 10.0414 37.1771 9.97246 37.5091 9.96958C37.841 9.96669 38.1702 10.0299 38.4775 10.1556C38.7847 10.2814 39.0638 10.467 39.2986 10.7017C39.5333 10.9364 39.7189 11.2156 39.8446 11.5228C39.9703 11.8301 40.0336 12.1593 40.0307 12.4912C40.0278 12.8232 39.9589 13.1512 39.8278 13.4562C39.6968 13.7612 39.5063 14.0371 39.2676 14.2677L28.5351 25.0002L39.2676 35.7327C39.723 36.2042 39.975 36.8357 39.9693 37.4912C39.9636 38.1467 39.7006 38.7737 39.2371 39.2373C38.7736 39.7008 38.1466 39.9637 37.4911 39.9694C36.8356 39.9751 36.2041 39.7231 35.7326 39.2677L25.0001 28.5352L14.2676 39.2677C13.7961 39.7231 13.1646 39.9751 12.5091 39.9694C11.8536 39.9637 11.2266 39.7008 10.763 39.2373C10.2995 38.7737 10.0366 38.1467 10.0309 37.4912C10.0252 36.8357 10.2772 36.2042 10.7326 35.7327L21.4651 25.0002L10.7326 14.2677C10.2639 13.7989 10.0006 13.1631 10.0006 12.5002C10.0006 11.8373 10.2639 11.2015 10.7326 10.7327Z" fill="white"/>
</svg>
