<svg width="17" height="17" viewBox="0 0 17 17" fill="none" xmlns="http://www.w3.org/2000/svg">
<path d="M16.2159 17H11.8065V10.5676H14.0484L14.3884 7.81044H11.8065V6.37712C11.8065 5.64187 12.0084 5.05431 13.0943 5.05431H14.6391V2.86238C14.1663 2.8305 13.4342 2.76144 12.4759 2.76144C10.4837 2.76144 8.97175 3.94719 8.97175 6.12425V7.81044H6.61088V10.5676H8.97175V17H0.793687C0.264562 17 0 16.6642 0 16.15V1.14431C0 0.629 0.264562 0 0.793687 0H16.2159C16.7407 0 17 0.629 17 1.14431V16.15C17 16.6642 16.7407 17 16.2159 17Z" fill="white"/>
</svg>
