<svg width="17" height="16" viewBox="0 0 17 16" fill="none" xmlns="http://www.w3.org/2000/svg">
<path d="M8.69729 0C6.52429 0 6.25129 0.01 5.39729 0.048C4.54729 0.088 3.96529 0.222 3.45729 0.42C2.92303 0.62069 2.43907 0.935705 2.03929 1.343C1.63237 1.7427 1.3174 2.22624 1.11629 2.76C0.917289 3.268 0.782289 3.85 0.744289 4.7C0.706289 5.554 0.696289 5.826 0.696289 8C0.696289 10.172 0.706289 10.444 0.744289 11.297C0.784289 12.149 0.918289 12.73 1.11629 13.239C1.32029 13.765 1.59429 14.211 2.03829 14.656C2.48329 15.101 2.92929 15.375 3.45529 15.579C3.96529 15.777 4.54529 15.912 5.39729 15.951C6.25129 15.99 6.52329 15.999 8.69629 15.999C10.8683 15.999 11.1403 15.989 11.9943 15.951C12.8453 15.911 13.4273 15.777 13.9363 15.579C14.4699 15.3781 14.9531 15.0631 15.3523 14.656C15.7973 14.211 16.0713 13.765 16.2763 13.239C16.4733 12.73 16.6083 12.149 16.6483 11.297C16.6863 10.444 16.6963 10.172 16.6963 7.999C16.6963 5.826 16.6863 5.554 16.6473 4.7C16.6073 3.849 16.4733 3.267 16.2763 2.759C16.0749 2.22513 15.7596 1.74158 15.3523 1.342C14.9531 0.935158 14.4698 0.620482 13.9363 0.42C13.4263 0.222 12.8443 0.087 11.9923 0.048C11.1403 0.01 10.8673 0 8.69429 0H8.69729ZM7.97929 1.442H8.69729C10.8333 1.442 11.0863 1.449 11.9293 1.488C12.7093 1.523 13.1333 1.654 13.4153 1.763C13.7883 1.908 14.0553 2.082 14.3343 2.362C14.6143 2.642 14.7873 2.908 14.9333 3.282C15.0433 3.563 15.1733 3.987 15.2083 4.767C15.2463 5.61 15.2553 5.863 15.2553 7.998C15.2553 10.133 15.2463 10.387 15.2083 11.23C15.1723 12.01 15.0423 12.433 14.9333 12.715C14.7883 13.088 14.6143 13.355 14.3343 13.634C14.0543 13.914 13.7883 14.087 13.4143 14.232C13.1333 14.342 12.7093 14.472 11.9293 14.508C11.0863 14.546 10.8333 14.555 8.69729 14.555C6.56029 14.555 6.30729 14.546 5.46429 14.508C4.68429 14.472 4.26129 14.342 3.97829 14.232C3.63079 14.1039 3.31642 13.8996 3.05829 13.634C2.79276 13.3758 2.58843 13.0615 2.46029 12.714C2.35029 12.433 2.22029 12.009 2.18429 11.229C2.14629 10.386 2.13829 10.133 2.13829 7.996C2.13829 5.86 2.14629 5.608 2.18429 4.765C2.22029 3.985 2.35029 3.561 2.46029 3.279C2.60529 2.906 2.77829 2.639 3.05829 2.359C3.33829 2.079 3.60529 1.906 3.97829 1.761C4.26029 1.651 4.68429 1.521 5.46429 1.485C6.20229 1.451 6.48829 1.441 7.97929 1.44V1.442ZM12.9673 2.77C12.8412 2.77 12.7164 2.79483 12.5999 2.84308C12.4834 2.89132 12.3776 2.96203 12.2885 3.05118C12.1993 3.14032 12.1286 3.24615 12.0804 3.36262C12.0321 3.4791 12.0073 3.60393 12.0073 3.73C12.0073 3.85607 12.0321 3.9809 12.0804 4.09738C12.1286 4.21385 12.1993 4.31968 12.2885 4.40882C12.3776 4.49797 12.4834 4.56868 12.5999 4.61692C12.7164 4.66517 12.8412 4.69 12.9673 4.69C13.2219 4.69 13.4661 4.58886 13.6461 4.40882C13.8261 4.22879 13.9273 3.98461 13.9273 3.73C13.9273 3.47539 13.8261 3.23121 13.6461 3.05118C13.4661 2.87114 13.2219 2.77 12.9673 2.77ZM8.69729 3.892C8.15236 3.8835 7.61118 3.98349 7.10527 4.18614C6.59935 4.3888 6.1388 4.69007 5.75044 5.07242C5.36207 5.45478 5.05365 5.91057 4.84313 6.41326C4.63261 6.91595 4.52419 7.4555 4.52419 8.0005C4.52419 8.5455 4.63261 9.08505 4.84313 9.58774C5.05365 10.0904 5.36207 10.5462 5.75044 10.9286C6.1388 11.3109 6.59935 11.6122 7.10527 11.8149C7.61118 12.0175 8.15236 12.1175 8.69729 12.109C9.77583 12.0922 10.8045 11.6519 11.5613 10.8833C12.318 10.1146 12.7422 9.07917 12.7422 8.0005C12.7422 6.92183 12.318 5.88641 11.5613 5.11775C10.8045 4.34909 9.77583 3.90883 8.69729 3.892ZM8.69729 5.334C9.0518 5.32713 9.40413 5.39103 9.73365 5.52195C10.0632 5.65287 10.3633 5.84819 10.6164 6.09648C10.8696 6.34476 11.0707 6.64104 11.2079 6.96797C11.3452 7.2949 11.4159 7.64592 11.4159 8.0005C11.4159 8.35508 11.3452 8.7061 11.2079 9.03303C11.0707 9.35996 10.8696 9.65624 10.6164 9.90452C10.3633 10.1528 10.0632 10.3481 9.73365 10.479C9.40413 10.61 9.0518 10.6739 8.69729 10.667C7.99903 10.6535 7.33394 10.3666 6.84491 9.86801C6.35587 9.36941 6.08193 8.69889 6.08193 8.0005C6.08193 7.30211 6.35587 6.63159 6.84491 6.13299C7.33394 5.6344 7.99903 5.34752 8.69729 5.334Z" fill="white"/>
</svg>
