<svg width="77" height="77" viewBox="0 0 77 77" fill="none" xmlns="http://www.w3.org/2000/svg">
<path d="M50.8657 42.625L38.4907 55L50.8657 42.625ZM38.4907 55L26.1157 42.625L38.4907 55ZM38.4907 55L38.4907 22L38.4907 55ZM38.4907 75.625C33.6154 75.625 28.7878 74.6647 24.2836 72.799C19.7794 70.9333 15.6868 68.1987 12.2394 64.7513C8.79201 61.304 6.0574 57.2113 4.19169 52.7071C2.32599 48.2029 1.36572 43.3753 1.36572 38.5C1.36572 33.6247 2.32599 28.7971 4.19169 24.2929C6.0574 19.7887 8.79201 15.696 12.2394 12.2487C15.6868 8.80129 19.7794 6.06667 24.2836 4.20097C28.7878 2.33526 33.6154 1.375 38.4907 1.375C48.3369 1.375 57.7798 5.28637 64.7421 12.2487C71.7043 19.2109 75.6157 28.6538 75.6157 38.5C75.6157 48.3462 71.7043 57.789 64.7421 64.7513C57.7798 71.7136 48.3369 75.625 38.4907 75.625V75.625Z" stroke="white" stroke-width="2" stroke-linecap="round" stroke-linejoin="round"/>
</svg>
