<svg width="17" height="11" viewBox="0 0 17 11" fill="none" xmlns="http://www.w3.org/2000/svg">
<g clip-path="url(#clip0)">
<path d="M16.9102 9.93359C16.8929 9.89075 16.8735 9.84883 16.852 9.808C16.5568 9.20575 15.9931 8.46692 15.161 7.58967L15.1342 7.55942C14.7396 7.14142 14.5007 6.86734 14.4005 6.72617C14.217 6.4585 14.1768 6.18809 14.2761 5.91309C14.3477 5.70592 14.6125 5.26775 15.0724 4.59859C15.314 4.24384 15.5064 3.95967 15.6477 3.74609C16.6686 2.20609 17.1115 1.2225 16.9755 0.794419L16.9227 0.693586C16.8869 0.634003 16.7966 0.578086 16.6489 0.528586C16.5013 0.478169 16.3125 0.469919 16.0826 0.502919L13.5326 0.523086C13.4914 0.506586 13.4333 0.508419 13.3563 0.528586L13.2409 0.558836L13.1962 0.583586L13.1613 0.613836C13.1231 0.642959 13.0901 0.678622 13.0637 0.719253C13.0267 0.773164 12.9972 0.83209 12.9761 0.894336C12.7128 1.66941 12.3959 2.42422 12.0276 3.153C11.8373 3.51872 11.6368 3.87881 11.4264 4.23284C11.2907 4.46897 11.137 4.69366 10.9665 4.90475C10.8625 5.02829 10.7501 5.14408 10.63 5.25125C10.5298 5.33834 10.4529 5.375 10.4001 5.36125C10.3495 5.34879 10.2991 5.33565 10.2489 5.32184C10.1636 5.25795 10.0953 5.17317 10.0503 5.07525C9.99467 4.95171 9.96017 4.81932 9.94826 4.68384C9.93218 4.54899 9.92173 4.41351 9.91694 4.27775C9.91426 4.16409 9.91605 4.00275 9.92142 3.79559C9.92768 3.58842 9.93037 3.44725 9.93037 3.37392C9.93037 3.12 9.93484 2.84317 9.94379 2.54617L9.96616 1.8385C9.97242 1.66434 9.9751 1.48009 9.9751 1.28575C9.9751 1.09234 9.96437 0.940169 9.94379 0.829252C9.92354 0.719439 9.89267 0.611964 9.85163 0.508419C9.81542 0.411579 9.75227 0.327754 9.67 0.267336C9.57914 0.205306 9.47871 0.159439 9.37294 0.131669C9.05979 0.0510025 8.66252 0.0079192 8.17847 0.00150253C7.08063 -0.0122475 6.37558 0.0684192 6.06242 0.241669C5.93894 0.315003 5.8271 0.415836 5.72689 0.543253C5.61952 0.689919 5.60521 0.770586 5.68216 0.784336C6.03647 0.843919 6.287 0.987836 6.43373 1.21517L6.48742 1.33617C6.52858 1.42325 6.57063 1.57725 6.61179 1.79817C6.65542 2.04004 6.68204 2.28481 6.69142 2.53059C6.72094 3.01917 6.72094 3.43809 6.69142 3.7855C6.66189 4.13384 6.63416 4.40425 6.60731 4.59859C6.57984 4.84294 6.50273 5.07869 6.38094 5.29067C6.36988 5.31039 6.35495 5.32756 6.3371 5.34109C6.26162 5.37429 6.18035 5.39144 6.09821 5.3915C6.01589 5.3915 5.91479 5.34475 5.79758 5.25125C5.66078 5.13764 5.53764 5.00779 5.43073 4.86442C5.2702 4.64715 5.1266 4.41727 5.00126 4.17692C4.8411 3.88267 4.67647 3.53525 4.50468 3.13284L4.36331 2.84134C4.23797 2.57092 4.11716 2.29833 4.00095 2.02367C3.85362 1.68195 3.71754 1.33525 3.59294 0.984169C3.55523 0.857873 3.48136 0.746097 3.38089 0.663336L3.33705 0.633086C3.23396 0.557849 3.1161 0.506547 2.99168 0.482753L0.566945 0.502919C0.318208 0.502919 0.149998 0.567086 0.0623135 0.693586L0.026524 0.754086C0.00556289 0.804704 -0.0036263 0.859622 -0.000318075 0.914503C-0.000318075 0.987836 0.0175767 1.07859 0.0533661 1.18492C0.406787 2.12909 0.791524 3.03934 1.20758 3.91659C1.62363 4.792 1.986 5.49875 2.292 6.03409C2.5872 6.55043 2.90026 7.05583 3.23058 7.54934C3.5491 8.02417 3.76026 8.3285 3.86316 8.46325C3.96605 8.59709 4.04747 8.697 4.10652 8.76392L4.32752 9.005C4.46979 9.16542 4.67737 9.35792 4.95205 9.5825C5.22673 9.80617 5.53005 10.0271 5.86379 10.2443C6.19663 10.4625 6.58494 10.6394 7.02694 10.776C7.46984 10.9135 7.9011 10.9685 8.31984 10.9428H9.33805C9.54384 10.9218 9.70042 10.8484 9.80689 10.7219L9.84268 10.6715C9.87287 10.6129 9.89486 10.5503 9.908 10.4854C9.92947 10.4029 9.93931 10.3103 9.93931 10.2104C9.93115 9.94935 9.95035 9.68813 9.99658 9.43125C10.0257 9.25165 10.0765 9.07645 10.1478 8.90967C10.2033 8.79234 10.2668 8.69425 10.3375 8.61359C10.3814 8.55843 10.4323 8.50943 10.4887 8.46784C10.5114 8.45452 10.535 8.44288 10.5594 8.433C10.7007 8.37984 10.8672 8.43117 11.0595 8.58884C11.251 8.7465 11.4308 8.93992 11.5991 9.17092C11.7673 9.40192 11.9695 9.66134 12.2057 9.94917C12.4419 10.237 12.6477 10.4506 12.8248 10.5908L13.002 10.7118C13.1201 10.7925 13.274 10.8658 13.4628 10.9328C13.6507 10.9997 13.8162 11.0162 13.9576 10.9832L16.2239 10.9428C16.4476 10.9428 16.6221 10.9007 16.7456 10.8173C16.8699 10.7338 16.9433 10.6413 16.9675 10.5413C16.9913 10.4288 16.9928 10.3125 16.9719 10.1994C16.9598 10.1089 16.9388 10.0198 16.9093 9.93359H16.9102Z" fill="white"/>
</g>
<defs>
<clipPath id="clip0">
<rect width="17" height="11" fill="white"/>
</clipPath>
</defs>
</svg>
